<svg width="150" height="36" viewBox="0 0 150 36" fill="none" xmlns="http://www.w3.org/2000/svg">
<path d="M21.8856 16.5704C21.9697 16.5704 22.0545 16.5516 22.1319 16.5125L35.9148 9.62112C36.0467 9.55515 36.147 9.43943 36.1927 9.2988C36.2385 9.15883 36.2263 9.00674 36.1584 8.87547C33.3796 3.4767 27.8524 7.22191e-05 22.0606 7.22191e-05C21.7396 -0.00461 21.4334 0.218799 21.4314 0.548561L21.3344 16.0159C21.333 16.2077 21.4313 16.386 21.5941 16.4876C21.683 16.5428 21.7839 16.5704 21.8856 16.5704ZM22.5303 1.11177C27.4937 1.29546 32.3553 4.34818 34.9134 8.88885L28.6781 12.0065L22.4429 15.1242L22.5303 1.11177Z" fill="#EC3750"/>
<path d="M3.71016 31.6884L3.8589 31.8883C3.96726 32.0324 4.13281 32.1084 4.30037 32.1084C4.41542 32.1084 4.53122 32.0727 4.6308 31.998C4.87377 31.8157 4.92352 31.4697 4.7405 31.2261L4.59986 31.037C2.31168 27.9136 1.10233 24.2102 1.10233 20.3263C1.10233 10.5074 8.94338 2.4854 18.6929 2.19259V20.3263C18.6929 20.5181 18.7925 20.6958 18.9554 20.7961C19.1189 20.897 19.3235 20.9044 19.4931 20.8183L35.6711 12.6152C36.8091 15.0319 37.3859 17.6229 37.3859 20.3263C37.3859 22.4812 37.0117 24.5904 36.2734 26.5959C36.1684 26.8819 36.3151 27.1989 36.6005 27.3039C36.8839 27.4069 37.2028 27.2629 37.3085 26.9768C38.0912 24.8489 38.4883 22.6112 38.4883 20.3263C38.4883 17.2622 37.7897 14.3333 36.4115 11.6212C36.2748 11.3493 35.9417 11.2416 35.6712 11.3789L19.7953 19.4285V1.63332C19.7953 1.32914 19.5484 1.08215 19.2442 1.08215C8.63318 1.08215 4.0871e-09 9.71525 4.0871e-09 20.3263C-8.3607e-05 24.4464 1.28268 28.3753 3.71016 31.6884Z" fill="#338EDA"/>
<path d="M26.8859 35.7298H30.8982H35.1555H37.937C38.2412 35.7298 38.4882 35.4828 38.4882 35.1786C38.4882 34.8745 38.2412 34.6275 37.937 34.6275H35.7067V17.7865C35.7067 17.4823 35.4597 17.2354 35.1555 17.2354H30.8982C30.5941 17.2354 30.3471 17.4823 30.3471 17.7865V34.6275H27.4371V21.5465C27.4371 21.2423 27.1901 20.9953 26.8859 20.9953H22.6286C22.3244 20.9953 22.0774 21.2423 22.0774 21.5465V34.6274H19.1674V23.834C19.1674 23.5298 18.9204 23.2829 18.6163 23.2829H14.359C14.0548 23.2829 13.8078 23.5298 13.8078 23.834V34.6275H10.8978V26.0353C10.8978 25.7312 10.6508 25.4842 10.3466 25.4842H6.08915C5.78497 25.4842 5.53798 25.7312 5.53798 26.0353V34.6274H2.36009C2.05592 34.6274 1.80893 34.8744 1.80893 35.1785C1.80893 35.4827 2.05592 35.7297 2.36009 35.7297H6.08915H10.3465H14.3588H18.6161H22.6284H26.8859V35.7298ZM31.4495 18.3377H34.6045V34.6274H31.4495V18.3377ZM23.1798 22.0977H26.3347V34.6274H23.1798V22.0977ZM9.7953 34.6274H6.64031V26.5865H9.7953V34.6274ZM18.065 34.6274H14.91V24.3852H18.065V34.6274Z" fill="#33D6A6"/>
<path d="M57.1039 13.9109H53.4069C53.3912 13.1417 53.2029 12.6158 52.8418 12.3332C52.4807 12.0506 52.0726 11.9093 51.6173 11.9093C51.1307 11.9093 50.7461 12.0192 50.4635 12.239C50.1966 12.4588 50.0632 12.7413 50.0632 13.0867C50.0632 13.7147 50.4399 14.1699 51.1935 14.4525C51.9627 14.7351 52.8026 15.049 53.7131 15.3944C54.6393 15.7398 55.4791 16.2343 56.2327 16.8779C57.0019 17.5058 57.3865 18.4791 57.3865 19.7978C57.3865 21.2107 56.8842 22.3331 55.8795 23.1651C54.8904 23.9971 53.5718 24.4132 51.9234 24.4132C50.2751 24.4132 48.925 23.9657 47.8732 23.0709C46.8214 22.1761 46.2171 20.8888 46.0601 19.2091H49.8748C49.9219 19.9312 50.1181 20.4807 50.4635 20.8575C50.8245 21.2185 51.3426 21.399 52.0176 21.399C52.5671 21.399 52.9988 21.2813 53.3128 21.0458C53.6267 20.8104 53.7837 20.4885 53.7837 20.0804C53.7837 19.4367 53.3991 18.9658 52.6299 18.6675C51.8763 18.3535 51.0443 18.016 50.1338 17.655C49.2233 17.2782 48.3834 16.7759 47.6142 16.1479C46.8607 15.5043 46.4839 14.5388 46.4839 13.2515C46.4839 11.9486 46.947 10.8968 47.8732 10.0962C48.8151 9.29554 50.0789 8.89523 51.6644 8.89523C53.2971 8.89523 54.5843 9.35048 55.5262 10.261C56.4838 11.1558 57.0097 12.3724 57.1039 13.9109ZM59.1557 24.0599V13.699H62.7821V15.0647C63.1117 14.5153 63.5356 14.0914 64.0536 13.7931C64.5717 13.4949 65.1604 13.3457 65.8197 13.3457C67.0285 13.3457 67.9861 13.7617 68.6925 14.5938C69.399 15.4258 69.7522 16.5718 69.7522 18.0317V24.0599H66.1258V18.3849C66.1258 17.6785 65.9924 17.1526 65.7255 16.8072C65.4586 16.4619 65.074 16.2892 64.5717 16.2892C64.0222 16.2892 63.5827 16.4619 63.253 16.8072C62.939 17.1369 62.7821 17.6628 62.7821 18.3849V24.0599H59.1557ZM71.2169 18.8794C71.2169 18.0003 71.3346 17.2154 71.5701 16.5247C71.8213 15.8339 72.1431 15.2531 72.5356 14.7821C72.9437 14.3112 73.4225 13.958 73.972 13.7225C74.5214 13.4713 75.0944 13.3457 75.691 13.3457C76.3817 13.3457 77.0253 13.487 77.6219 13.7696C78.2184 14.0522 78.7051 14.4839 79.0818 15.0647V13.699H82.7082V24.0599H79.0818V22.6942C78.7051 23.275 78.2184 23.7067 77.6219 23.9893C77.0253 24.2719 76.3817 24.4132 75.691 24.4132C75.0944 24.4132 74.5214 24.2954 73.972 24.0599C73.4225 23.8088 72.9437 23.4477 72.5356 22.9767C72.1431 22.5058 71.8213 21.9249 71.5701 21.2342C71.3346 20.5435 71.2169 19.7586 71.2169 18.8794ZM76.9861 16.2892C76.3111 16.2892 75.7852 16.5404 75.4084 17.0427C75.0316 17.5294 74.8432 18.1416 74.8432 18.8794C74.8432 19.6173 75.0316 20.2374 75.4084 20.7397C75.7852 21.2264 76.3111 21.4697 76.9861 21.4697C77.614 21.4697 78.1242 21.2421 78.5167 20.7868C78.9248 20.3316 79.1289 19.6958 79.1289 18.8794C79.1289 18.0631 78.9327 17.4273 78.5402 16.9721C78.1478 16.5168 77.6297 16.2892 76.9861 16.2892ZM84.819 28.1808V13.699H88.4454V15.0647C88.8221 14.4839 89.3088 14.0522 89.9053 13.7696C90.5018 13.487 91.1455 13.3457 91.8362 13.3457C92.4328 13.3457 93.0058 13.4713 93.5552 13.7225C94.1046 13.958 94.5756 14.3112 94.9681 14.7821C95.3762 15.2531 95.698 15.8339 95.9335 16.5247C96.1847 17.2154 96.3103 18.0003 96.3103 18.8794C96.3103 19.7586 96.1847 20.5435 95.9335 21.2342C95.698 21.9249 95.3762 22.5058 94.9681 22.9767C94.5756 23.4477 94.1046 23.8088 93.5552 24.0599C93.0058 24.2954 92.4328 24.4132 91.8362 24.4132C91.1455 24.4132 90.5018 24.2719 89.9053 23.9893C89.3088 23.7067 88.8221 23.275 88.4454 22.6942V28.1808H84.819ZM90.5411 21.4697C91.2161 21.4697 91.742 21.2264 92.1188 20.7397C92.4956 20.2374 92.6839 19.6173 92.6839 18.8794C92.6839 18.1416 92.4956 17.5294 92.1188 17.0427C91.742 16.5404 91.2161 16.2892 90.5411 16.2892C89.9132 16.2892 89.3951 16.5247 88.9869 16.9956C88.5945 17.4509 88.3983 18.0788 88.3983 18.8794C88.3983 19.6801 88.5945 20.3159 88.9869 20.7868C89.3794 21.2421 89.8975 21.4697 90.5411 21.4697ZM108.17 18.2201H111.867C111.631 19.4603 111.27 20.4885 110.784 21.3049C110.313 22.1055 109.755 22.7413 109.112 23.2122C108.484 23.6675 107.785 23.9814 107.016 24.1541C106.247 24.3268 105.47 24.4132 104.685 24.4132C103.617 24.4132 102.628 24.2169 101.718 23.8245C100.807 23.432 100.03 22.8983 99.3866 22.2232C98.7429 21.5325 98.2327 20.7083 97.856 19.7507C97.4949 18.7931 97.3144 17.757 97.3144 16.6424C97.3144 15.5278 97.487 14.4917 97.8324 13.5341C98.1935 12.5765 98.688 11.7602 99.3159 11.0852C99.9596 10.3944 100.737 9.85283 101.647 9.46037C102.558 9.06791 103.57 8.87168 104.685 8.87168C105.47 8.87168 106.247 8.96587 107.016 9.15425C107.785 9.34263 108.484 9.6723 109.112 10.1433C109.755 10.6142 110.313 11.25 110.784 12.0506C111.27 12.8512 111.631 13.8559 111.867 15.0647H108.123C107.903 13.9344 107.456 13.1731 106.781 12.7806C106.121 12.3724 105.423 12.1684 104.685 12.1684C103.57 12.1684 102.668 12.5922 101.977 13.4399C101.302 14.2876 100.964 15.3551 100.964 16.6424C100.964 17.9297 101.31 18.9972 102 19.8449C102.691 20.6926 103.586 21.1165 104.685 21.1165C105.391 21.1165 106.082 20.9359 106.757 20.5749C107.448 20.2138 107.919 19.4289 108.17 18.2201ZM112.931 18.8794C112.931 18.0003 113.049 17.2154 113.284 16.5247C113.536 15.8339 113.857 15.2531 114.25 14.7821C114.658 14.3112 115.137 13.958 115.686 13.7225C116.236 13.4713 116.809 13.3457 117.405 13.3457C118.096 13.3457 118.74 13.487 119.336 13.7696C119.933 14.0522 120.419 14.4839 120.796 15.0647V13.699H124.423V24.0599H120.796V22.6942C120.419 23.275 119.933 23.7067 119.336 23.9893C118.74 24.2719 118.096 24.4132 117.405 24.4132C116.809 24.4132 116.236 24.2954 115.686 24.0599C115.137 23.8088 114.658 23.4477 114.25 22.9767C113.857 22.5058 113.536 21.9249 113.284 21.2342C113.049 20.5435 112.931 19.7586 112.931 18.8794ZM118.7 16.2892C118.025 16.2892 117.5 16.5404 117.123 17.0427C116.746 17.5294 116.558 18.1416 116.558 18.8794C116.558 19.6173 116.746 20.2374 117.123 20.7397C117.5 21.2264 118.025 21.4697 118.7 21.4697C119.328 21.4697 119.839 21.2421 120.231 20.7868C120.639 20.3316 120.843 19.6958 120.843 18.8794C120.843 18.0631 120.647 17.4273 120.255 16.9721C119.862 16.5168 119.344 16.2892 118.7 16.2892ZM135.387 16.7366H131.949C131.949 16.4226 131.824 16.195 131.573 16.0537C131.337 15.8967 131.055 15.8182 130.725 15.8182C130.474 15.8182 130.254 15.8732 130.066 15.9831C129.893 16.0773 129.806 16.2264 129.806 16.4305C129.806 16.6346 129.877 16.7994 130.018 16.925C130.175 17.0506 130.513 17.1683 131.031 17.2782L133.339 17.7492C134.249 17.9375 134.885 18.2829 135.246 18.7853C135.623 19.2876 135.811 19.9234 135.811 20.6926C135.811 21.7601 135.356 22.6471 134.445 23.3535C133.535 24.0599 132.389 24.4132 131.007 24.4132C129.516 24.4132 128.323 24.0678 127.428 23.3771C126.549 22.6706 126.078 21.7758 126.015 20.6926H129.571C129.587 21.1008 129.736 21.4147 130.018 21.6345C130.301 21.8386 130.662 21.9406 131.102 21.9406C131.447 21.9406 131.73 21.87 131.949 21.7287C132.169 21.5717 132.279 21.352 132.279 21.0694C132.279 20.9124 132.216 20.7633 132.091 20.622C131.965 20.4807 131.745 20.3786 131.431 20.3159L129.43 19.892C128.299 19.6408 127.491 19.2484 127.004 18.7146C126.518 18.1652 126.274 17.4901 126.274 16.6895C126.274 15.6848 126.675 14.8763 127.475 14.2641C128.292 13.6519 129.406 13.3457 130.819 13.3457C132.091 13.3457 133.142 13.6283 133.974 14.1935C134.806 14.7429 135.277 15.5906 135.387 16.7366ZM137.318 24.0599V8.04751H140.945V15.0647C141.274 14.5153 141.698 14.0914 142.216 13.7931C142.734 13.4949 143.323 13.3457 143.982 13.3457C145.191 13.3457 146.149 13.7617 146.855 14.5938C147.562 15.4258 147.915 16.5718 147.915 18.0317V24.0599H144.289V18.3849C144.289 17.6785 144.155 17.1526 143.888 16.8072C143.621 16.4619 143.237 16.2892 142.734 16.2892C142.185 16.2892 141.745 16.4619 141.416 16.8072C141.102 17.1369 140.945 17.6628 140.945 18.3849V24.0599H137.318Z" fill="#1F2D3D"/>
</svg>
