<svg width="15" height="16" viewBox="0 0 15 16" fill="none" xmlns="http://www.w3.org/2000/svg">
<path d="M10.9957 2.32684C11.9741 3.27222 12.5474 4.56029 12.5952 5.91984L12.5983 6.10837V9.19752V9.31555L12.6511 9.42113L14.1484 12.4158L14.1485 12.4158C14.1777 12.4742 14.1923 12.5388 14.191 12.6041C14.1898 12.6694 14.1728 12.7334 14.1414 12.7907C14.11 12.8479 14.0653 12.8967 14.0109 12.9329C13.9595 12.9671 13.9009 12.9891 13.8397 12.9971L13.7739 13.0005H0.904261H0.904114C0.838801 13.0005 0.774456 12.9847 0.716593 12.9544C0.658734 12.9241 0.60908 12.8803 0.571889 12.8266C0.534699 12.7729 0.511081 12.711 0.503059 12.6462C0.495475 12.5849 0.502043 12.5227 0.522196 12.4645L0.548483 12.4045L2.04015 9.42113L2.09294 9.31555V9.19752V6.10422C2.09294 4.71112 2.64635 3.37508 3.63141 2.39001C4.61648 1.40494 5.95253 0.851532 7.34562 0.851532H7.34563C8.70756 0.85151 10.0163 1.38047 10.9957 2.32684ZM6.52381 15.466H6.52365C6.23513 15.4661 5.95724 15.3571 5.74568 15.1609C5.64087 15.0637 5.55617 14.9487 5.49476 14.8223H9.19622C9.1473 14.9231 9.08345 15.017 9.006 15.1005C8.81197 15.3097 8.54682 15.4388 8.26268 15.4625L8.15911 15.466H6.52381Z" stroke="black"/>
</svg>
