<svg width="18" height="17" viewBox="0 0 18 17" fill="none" xmlns="http://www.w3.org/2000/svg">
<path id="Vector" d="M10.0499 7.03142C10.0499 7.75928 9.82993 8.43428 9.45564 8.99857L7.19278 6.73571V3.53214C8.82278 3.86285 10.0499 5.30357 10.0499 7.03142ZM5.76421 3.53214C4.13421 3.86285 2.90707 5.30357 2.90707 7.03142C2.90707 9.00357 4.50636 10.6029 6.4785 10.6029C7.20636 10.6029 7.88135 10.3829 8.44564 10.0086L5.76421 7.32714V3.53214ZM11.4785 4.88857H14.3356V3.45999H11.4785V4.88857ZM11.4785 7.74571H14.3356V6.31714H11.4785V7.74571ZM11.4785 10.6029H14.3356V9.17428H11.4785V10.6029ZM9.33564 13.46V14.8886H12.9071V16.3171H4.33564V14.8886H7.90707V13.46H0.0499268V2.74571C0.0499268 1.56428 1.01136 0.602852 2.19278 0.602852H15.0499C16.2314 0.602852 17.1928 1.56428 17.1928 2.74571V13.46H9.33564ZM1.4785 12.0314H15.7642V2.74571C15.7642 2.35214 15.4442 2.03142 15.0499 2.03142H2.19278C1.7985 2.03142 1.4785 2.35214 1.4785 2.74571V12.0314Z" fill="black" fill-opacity="0.75"/>
</svg>
