<svg width="18" height="18" viewBox="0 0 18 18" fill="none" xmlns="http://www.w3.org/2000/svg">
<path id="Vector" d="M16.4944 6.96725C16.0693 6.58003 15.5257 6.38071 14.9448 6.40857C14.3704 6.435 13.8411 6.68434 13.4553 7.10942L11.157 9.63417C10.7633 8.98405 10.0489 8.54897 9.23591 8.54897H6.4804V7.83455H6.74902C7.78279 7.83455 8.62366 6.99368 8.62366 5.95992C8.62366 5.03975 7.96425 4.26174 7.05694 4.111L4.71008 3.7195C4.49432 3.68378 4.33786 3.49875 4.33786 3.27942C4.33786 3.03366 4.5379 2.83362 4.78366 2.83362H6.48112C6.87548 2.83362 7.19554 3.1544 7.19554 3.54804H8.62437C8.62437 2.36639 7.66277 1.40479 6.48112 1.40479V0.691082H5.05228V1.4055H4.78366C3.7499 1.4055 2.90903 2.24637 2.90903 3.28013C2.90903 4.2003 3.56844 4.97831 4.47575 5.12905L6.82261 5.52055C7.03836 5.55627 7.19482 5.7413 7.19482 5.96063C7.19482 6.20639 6.99478 6.40643 6.74902 6.40643H5.05157C4.65721 6.40643 4.33715 6.08565 4.33715 5.69201H2.90831C2.90831 6.87366 3.86992 7.83526 5.05157 7.83526V8.54968H2.19318C1.01153 8.54968 0.0499268 9.51129 0.0499268 10.6929V15.6939C0.0499268 16.8755 1.01153 17.8371 2.19318 17.8371H9.65742L16.6494 9.98923C17.431 9.11407 17.3617 7.75811 16.4944 6.96725ZM15.5835 9.03834L9.01802 16.4083H2.19318C1.79882 16.4083 1.47876 16.0875 1.47876 15.6939V10.6929C1.47876 10.2993 1.79882 9.97852 2.19318 9.97852H9.2352C9.68528 9.97852 10.0518 10.3443 10.0518 10.7944C10.0518 11.1973 9.7503 11.5452 9.35165 11.6024L5.66454 12.1289L5.86672 13.5428L9.55383 13.0162C10.3933 12.8962 11.0748 12.3104 11.3499 11.5452L14.5126 8.07031C14.6419 7.92742 14.8198 7.84455 15.012 7.83526C15.2056 7.83026 15.3892 7.89385 15.5321 8.02244C15.8228 8.2882 15.8464 8.74329 15.5835 9.03763V9.03834ZM12.9287 4.2746H10.0525V2.84577H12.9516L11.8535 1.74699L12.8637 0.736805L14.6126 2.48641C14.8962 2.76932 15.0527 3.14654 15.0527 3.54804C15.0527 3.94954 14.8962 4.32676 14.6126 4.61038L12.8337 6.38928L11.8235 5.37909L12.928 4.2746H12.9287Z" fill="black" fill-opacity="0.75"/>
</svg>
