<svg width="20" height="18" viewBox="0 0 20 18" fill="none" xmlns="http://www.w3.org/2000/svg">
<path id="Vector" d="M19.8512 8.24021C19.0461 6.49409 17.8668 4.9464 16.397 3.70676L18.9237 1.18003L17.7445 0L15.0003 2.74174C13.4814 1.86315 11.7548 1.40762 10.0001 1.42254C3.74999 1.42254 0.880749 6.64017 0.149063 8.24021C0.0508426 8.45463 0 8.68771 0 8.92356C0 9.15941 0.0508426 9.39249 0.149063 9.60691C0.954197 11.353 2.13346 12.9007 3.60332 14.1404L1.07742 16.6671L2.25578 17.8455L5.00002 15.1037C6.51892 15.9823 8.24551 16.4378 10.0001 16.4229C16.2503 16.4229 19.1195 11.2053 19.8512 9.60525C19.9493 9.39106 20 9.15828 20 8.92273C20 8.68718 19.9493 8.45439 19.8512 8.24021ZM5.00002 8.92273C4.99844 8.00488 5.24996 7.10436 5.72692 6.32016C6.20388 5.53596 6.88782 4.89846 7.70356 4.47771C8.5193 4.05696 9.43525 3.86927 10.3507 3.93527C11.2662 4.00126 12.1458 4.31839 12.8927 4.85179L11.6827 6.06182C11.1747 5.75548 10.5933 5.59221 10.0001 5.58931C9.11607 5.58931 8.2682 5.94051 7.64307 6.56565C7.01793 7.19078 6.66673 8.03865 6.66673 8.92273C6.66963 9.51592 6.8329 10.0973 7.13924 10.6053L5.92921 11.8153C5.325 10.9718 5.00007 9.9603 5.00002 8.92273ZM10.0001 13.9229C8.96258 13.9228 7.95107 13.5979 7.10758 12.9937L8.31761 11.7836C8.82559 12.09 9.40695 12.2532 10.0001 12.2561C10.8842 12.2561 11.7321 11.9049 12.3572 11.2798C12.9824 10.6547 13.3336 9.80681 13.3336 8.92273C13.3307 8.32953 13.1674 7.74816 12.8611 7.24019L14.0711 6.03015C14.6045 6.77711 14.9216 7.65667 14.9876 8.57215C15.0536 9.48763 14.8659 10.4036 14.4452 11.2193C14.0244 12.0351 13.3869 12.719 12.6027 13.196C11.8185 13.6729 10.918 13.9244 10.0001 13.9229Z" fill="black" fill-opacity="0.5"/>
</svg>
