<svg width="57" height="58" viewBox="0 0 57 58" fill="none" xmlns="http://www.w3.org/2000/svg">
<g clip-path="url(#clip0_284_294)">
<path d="M9.60284 53.8771C9.35017 53.5233 42.0454 21.8893 42.0454 21.8893C42.0454 21.8893 43.9 23.5585 44.8479 24.3629C44.8182 24.2788 44.8601 24.2656 45.0031 24.3543C43.2569 22.5857 44.9749 21.7772 46.3898 22.9394C47.8048 24.1017 47.7037 26.5779 45.5308 24.7587C45.2852 24.553 45.1138 24.4231 45.0031 24.3543C45.0031 24.3544 45.0031 24.3544 45.0032 24.3544C45.6529 25.0125 45.4096 24.8396 44.8479 24.3629C44.9989 24.7899 46.9977 27.0437 46.9977 27.0437C46.9977 27.0437 28.8056 46.3476 28.4013 46.0444C27.9971 45.7412 29.4625 40.9405 29.1088 40.5868C28.7551 40.233 9.85551 54.2308 9.60284 53.8771Z" fill="#9747FF"/>
<path d="M53.8163 14.5252C54.6381 14.4308 55.3112 15.1686 55.1418 15.9783L52.1445 30.3126C51.9421 31.2808 50.728 31.6125 50.0614 30.8817L38.5102 18.219C37.8435 17.4882 38.285 16.3097 39.2677 16.1968L53.8163 14.5252Z" fill="#9747FF"/>
<path d="M0.00101988 46.3897C-0.175849 46.1421 22.7108 23.9983 22.7108 23.9983C22.7108 23.9983 24.009 25.1667 24.6726 25.7298C24.6518 25.6709 24.6811 25.6617 24.7812 25.7238C23.5589 24.4858 24.7615 23.9198 25.7519 24.7334C26.7424 25.547 26.6716 27.2803 25.1506 26.0068C24.9787 25.8629 24.8587 25.7719 24.7812 25.7238C24.7812 25.7238 24.7812 25.7238 24.7812 25.7239C25.2361 26.1845 25.0658 26.0635 24.6726 25.7298C24.7782 26.0287 26.1774 27.6064 26.1774 27.6064C26.1774 27.6064 13.4429 41.1191 13.16 40.9068C12.877 40.6946 13.9028 37.3341 13.6552 37.0865C13.4076 36.8389 0.177888 46.6374 0.00101988 46.3897Z" fill="#FF5364"/>
<path d="M30.9505 18.8434C31.5257 18.7773 31.9969 19.2938 31.8784 19.8606L29.7802 29.8946C29.6385 30.5723 28.7887 30.8045 28.3221 30.293L20.2362 21.4291C19.7695 20.9176 20.0786 20.0926 20.7665 20.0135L30.9505 18.8434Z" fill="#FF5364"/>
</g>
<defs>
<clipPath id="clip0_284_294">
<rect width="57" height="57" fill="white" transform="translate(0 0.5)"/>
</clipPath>
</defs>
</svg>
