<svg width="39" height="36" viewBox="0 0 39 36" fill="none" xmlns="http://www.w3.org/2000/svg">
<path d="M21.8856 16.5704C21.9697 16.5704 22.0545 16.5516 22.1319 16.5125L35.9148 9.62112C36.0467 9.55515 36.147 9.43943 36.1927 9.2988C36.2385 9.15883 36.2263 9.00674 36.1584 8.87547C33.3796 3.4767 27.8524 7.22191e-05 22.0606 7.22191e-05C21.7396 -0.00461 21.4334 0.218799 21.4314 0.548561L21.3344 16.0159C21.333 16.2077 21.4313 16.386 21.5941 16.4876C21.683 16.5428 21.7839 16.5704 21.8856 16.5704ZM22.5303 1.11177C27.4937 1.29546 32.3553 4.34818 34.9134 8.88885L28.6781 12.0065L22.4429 15.1242L22.5303 1.11177Z" fill="#EC3750"/>
<path d="M3.71016 31.6884L3.8589 31.8883C3.96726 32.0324 4.13281 32.1084 4.30037 32.1084C4.41542 32.1084 4.53122 32.0727 4.6308 31.998C4.87377 31.8157 4.92352 31.4697 4.7405 31.2261L4.59986 31.037C2.31168 27.9136 1.10233 24.2102 1.10233 20.3263C1.10233 10.5074 8.94338 2.4854 18.6929 2.19259V20.3263C18.6929 20.5181 18.7925 20.6958 18.9554 20.7961C19.1189 20.897 19.3235 20.9044 19.4931 20.8183L35.6711 12.6152C36.8091 15.0319 37.3859 17.6229 37.3859 20.3263C37.3859 22.4812 37.0117 24.5904 36.2734 26.5959C36.1684 26.8819 36.3151 27.1989 36.6005 27.3039C36.8839 27.4069 37.2028 27.2629 37.3085 26.9768C38.0912 24.8489 38.4883 22.6112 38.4883 20.3263C38.4883 17.2622 37.7897 14.3333 36.4115 11.6212C36.2748 11.3493 35.9417 11.2416 35.6712 11.3789L19.7953 19.4285V1.63332C19.7953 1.32914 19.5484 1.08215 19.2442 1.08215C8.63318 1.08215 4.0871e-09 9.71525 4.0871e-09 20.3263C-8.3607e-05 24.4464 1.28268 28.3753 3.71016 31.6884Z" fill="#338EDA"/>
<path d="M26.8859 35.7298H30.8982H35.1555H37.937C38.2412 35.7298 38.4882 35.4828 38.4882 35.1786C38.4882 34.8745 38.2412 34.6275 37.937 34.6275H35.7067V17.7865C35.7067 17.4823 35.4597 17.2354 35.1555 17.2354H30.8982C30.5941 17.2354 30.3471 17.4823 30.3471 17.7865V34.6275H27.4371V21.5465C27.4371 21.2423 27.1901 20.9953 26.8859 20.9953H22.6286C22.3244 20.9953 22.0774 21.2423 22.0774 21.5465V34.6274H19.1674V23.834C19.1674 23.5298 18.9204 23.2829 18.6163 23.2829H14.359C14.0548 23.2829 13.8078 23.5298 13.8078 23.834V34.6275H10.8978V26.0353C10.8978 25.7312 10.6508 25.4842 10.3466 25.4842H6.08915C5.78497 25.4842 5.53798 25.7312 5.53798 26.0353V34.6274H2.36009C2.05592 34.6274 1.80893 34.8744 1.80893 35.1785C1.80893 35.4827 2.05592 35.7297 2.36009 35.7297H6.08915H10.3465H14.3588H18.6161H22.6284H26.8859V35.7298ZM31.4495 18.3377H34.6045V34.6274H31.4495V18.3377ZM23.1798 22.0977H26.3347V34.6274H23.1798V22.0977ZM9.7953 34.6274H6.64031V26.5865H9.7953V34.6274ZM18.065 34.6274H14.91V24.3852H18.065V34.6274Z" fill="#33D6A6"/>
</svg>
