<svg width="18" height="18" viewBox="0 0 18 18" fill="none" xmlns="http://www.w3.org/2000/svg">
<path id="Vector" d="M7.19278 16.9692C7.19278 17.3642 6.87278 17.6835 6.4785 17.6835H3.62136C1.65207 17.6835 0.0499268 16.0813 0.0499268 14.112V5.54062C0.0499268 3.57133 1.65207 1.96919 3.62136 1.96919H3.7435C4.0385 1.13776 4.83278 0.540619 5.76421 0.540619H7.19278C8.12421 0.540619 8.9185 1.13776 9.2135 1.96919H9.33564C11.3049 1.96919 12.9071 3.57133 12.9071 5.54062V7.68348C12.9071 8.07776 12.5878 8.39776 12.1928 8.39776C11.7978 8.39776 11.4785 8.07776 11.4785 7.68348V5.54062C11.4785 4.35919 10.5171 3.39776 9.33564 3.39776H8.62135C8.22707 3.39776 7.90707 3.07776 7.90707 2.68348C7.90707 2.28919 7.58635 1.96919 7.19278 1.96919H5.76421C5.37064 1.96919 5.04993 2.2899 5.04993 2.68348C5.04993 3.07705 4.72993 3.39776 4.33564 3.39776H3.62136C2.43993 3.39776 1.4785 4.35919 1.4785 5.54062V14.112C1.4785 15.2935 2.43993 16.2549 3.62136 16.2549H6.4785C6.87278 16.2549 7.19278 16.5742 7.19278 16.9692ZM6.33064 5.33562L4.73993 6.92633C4.68421 6.98276 4.59421 6.9849 4.53564 6.93062L3.74636 6.20705C3.45564 5.94062 3.0035 5.96133 2.73707 6.25133C2.47064 6.54205 2.48993 6.99419 2.78136 7.26062L3.57064 7.98419C3.8735 8.26205 4.25493 8.3999 4.63564 8.3999C5.03921 8.3999 5.44207 8.2449 5.74993 7.93705L7.34064 6.34633C7.61993 6.06705 7.61993 5.61562 7.34064 5.33633C7.06135 5.05705 6.60993 5.05705 6.33064 5.33633V5.33562ZM6.33064 9.67848L4.73993 11.2692C4.68421 11.3256 4.59421 11.327 4.53564 11.2735L3.74636 10.5499C3.45564 10.2835 3.0035 10.3035 2.73707 10.5942C2.47064 10.8849 2.48993 11.337 2.78136 11.6035L3.57064 12.327C3.8735 12.6049 4.25493 12.7428 4.63564 12.7428C5.03921 12.7428 5.44207 12.587 5.74993 12.2799L7.34064 10.6892C7.61993 10.4099 7.61993 9.95848 7.34064 9.67919C7.06135 9.3999 6.60993 9.39919 6.33064 9.67848ZM17.1928 12.3263V15.1835C17.1928 16.562 16.0714 17.6835 14.6928 17.6835H11.1214C9.74278 17.6835 8.62135 16.562 8.62135 15.1835V12.3263C8.62135 10.9478 9.74278 9.82633 11.1214 9.82633H14.6928C16.0714 9.82633 17.1928 10.9478 17.1928 12.3263ZM15.7642 12.3263C15.7642 11.7356 15.2835 11.2549 14.6928 11.2549H11.1214C10.5306 11.2549 10.0499 11.7356 10.0499 12.3263V15.1835C10.0499 15.7742 10.5306 16.2549 11.1214 16.2549H14.6928C15.2835 16.2549 15.7642 15.7742 15.7642 15.1835V12.3263ZM13.6214 12.6835H12.1928C11.7978 12.6835 11.4785 13.0028 11.4785 13.3978C11.4785 13.7928 11.7978 14.112 12.1928 14.112H13.6214C14.0164 14.112 14.3356 13.7928 14.3356 13.3978C14.3356 13.0028 14.0164 12.6835 13.6214 12.6835ZM10.0499 7.68348C10.0499 7.28919 9.73064 6.96919 9.33564 6.96919H8.26421C7.86993 6.96919 7.54993 7.28919 7.54993 7.68348C7.54993 8.07776 7.86993 8.39776 8.26421 8.39776H9.33564C9.73064 8.39776 10.0499 8.07776 10.0499 7.68348Z" fill="black" fill-opacity="0.75"/>
</svg>
