<svg width="113" height="68" viewBox="0 0 113 68" fill="none" xmlns="http://www.w3.org/2000/svg">
<g clip-path="url(#clip0_243_638)">
<path d="M37.6028 39.8771C37.3502 39.5233 70.0454 7.88928 70.0454 7.88928C70.0454 7.88928 71.9 9.55849 72.8479 10.3629C72.8182 10.2788 72.8601 10.2655 73.0031 10.3543C71.2569 8.5857 72.9749 7.77714 74.3898 8.93941C75.8048 10.1017 75.7037 12.5778 73.5308 10.7586C73.2852 10.553 73.1138 10.4231 73.0031 10.3543C73.0031 10.3543 73.0031 10.3544 73.0032 10.3544C73.6529 11.0125 73.4096 10.8395 72.8479 10.3629C72.9989 10.7898 74.9977 13.0437 74.9977 13.0437C74.9977 13.0437 56.8056 32.3476 56.4013 32.0444C55.9971 31.7412 57.4625 26.9405 57.1088 26.5867C56.7551 26.233 37.8555 40.2308 37.6028 39.8771Z" fill="#9747FF"/>
<path d="M81.8163 0.525193C82.6381 0.430772 83.3112 1.16863 83.1418 1.9783L80.1445 16.3126C79.9421 17.2808 78.728 17.6125 78.0614 16.8817L66.5102 4.21903C65.8435 3.48824 66.285 2.3097 67.2677 2.19679L81.8163 0.525193Z" fill="#9747FF"/>
<path d="M28.001 32.3897C27.8242 32.1421 50.7108 9.99829 50.7108 9.99829C50.7108 9.99829 52.009 11.1667 52.6726 11.7298C52.6518 11.6709 52.6811 11.6617 52.7812 11.7238C51.5589 10.4858 52.7615 9.91979 53.7519 10.7334C54.7424 11.547 54.6716 13.2803 53.1506 12.0068C52.9787 11.8629 52.8587 11.7719 52.7812 11.7238C52.7812 11.7238 52.7812 11.7238 52.7812 11.7239C53.2361 12.1845 53.0658 12.0635 52.6726 11.7298C52.7782 12.0287 54.1774 13.6064 54.1774 13.6064C54.1774 13.6064 41.4429 27.1191 41.16 26.9068C40.877 26.6946 41.9028 23.3341 41.6552 23.0865C41.4076 22.8389 28.1779 32.6374 28.001 32.3897Z" fill="#FF5364"/>
<path d="M58.9505 4.84342C59.5257 4.77732 59.9969 5.29382 59.8784 5.86059L57.7802 15.8946C57.6385 16.5723 56.7887 16.8045 56.3221 16.293L48.2362 7.4291C47.7695 6.91755 48.0786 6.09257 48.7665 6.01354L58.9505 4.84342Z" fill="#FF5364"/>
</g>
<path d="M0.888379 51.25C0.888379 46.1 4.93838 42.125 9.76338 42.125C14.5884 42.125 18.6384 46.525 18.6384 51.25C18.6384 55.975 14.5884 60.4 9.76338 60.4C4.93838 60.4 0.888379 56.4 0.888379 51.25ZM5.11338 51.25C5.11338 53.5 6.38838 56.3 9.76338 56.3C13.1634 56.3 14.4384 53.5 14.4384 51.25C14.4384 49 13.1634 46.2 9.76338 46.2C6.38838 46.2 5.11338 49 5.11338 51.25ZM25.8552 48.175C27.3302 47.3 28.9302 47.125 31.1302 47.125V50.775C27.8552 50.775 24.3052 52 24.3052 55.45V60H20.3802V47.5H24.3052C24.3052 47.475 24.3052 47.475 24.3052 47.45V47.5C24.2802 48.7 23.6552 50.1 23.1302 51.175L23.7552 51.475C24.2802 50.375 24.8302 48.825 25.8552 48.175ZM43.0599 48.475V41.875L47.0099 41.85V59.975L43.0599 60V59.1C43.0599 58.35 43.5599 57.5 43.7849 56.775L43.1349 56.575C42.8849 57.275 42.8349 58.325 42.3349 58.875C41.4099 59.825 40.1349 60.4 38.4599 60.4C34.7349 60.4 32.0599 57.475 32.1849 53.775C32.3349 50.25 34.9349 47.125 38.4599 47.125C40.1099 47.125 41.3849 47.825 42.2849 48.75C42.8099 49.275 42.9099 50.3 43.1599 51.025L43.8099 50.8C43.5599 50.075 43.0599 49.225 43.0599 48.475ZM39.1599 56.75C41.0099 56.75 42.1349 55.525 42.1349 53.85C42.1349 52.175 41.0099 50.775 39.1599 50.775C37.3099 50.775 36.1349 52.175 36.1349 53.85C36.1349 55.525 37.3099 56.75 39.1599 56.75ZM57.2132 60.4C51.7132 60.4 48.7132 57.4 48.7132 53.675C48.7132 49.95 51.9632 47.125 56.5632 47.125C61.2882 47.125 64.2132 50.225 64.1882 53.725C64.1882 54 64.1882 54.6 64.1882 54.825L53.6382 54.8C53.6382 55.9 54.6882 57.15 56.8382 57.15C58.2132 57.15 59.0632 56.775 59.3132 56.425H63.9132C63.5382 57.725 61.5132 60.4 57.2132 60.4ZM53.6382 52.5H59.4882C59.4882 51.05 58.4132 50.05 56.6632 50.05C54.8882 50.05 53.6382 51.175 53.6382 52.5ZM71.3142 48.175C72.7892 47.3 74.3892 47.125 76.5892 47.125V50.775C73.3142 50.775 69.7642 52 69.7642 55.45V60H65.8392V47.5H69.7642C69.7642 47.475 69.7642 47.475 69.7642 47.45V47.5C69.7392 48.7 69.1142 50.1 68.5892 51.175L69.2142 51.475C69.7392 50.375 70.2892 48.825 71.3142 48.175ZM94.9938 42.5L95.0188 53.925C95.0188 58.1 91.4188 60.375 86.7688 60.375C82.1438 60.375 78.5438 58.1 78.5438 53.925C78.5438 48.725 78.5438 42.5 78.5438 42.5H82.7688V52.375C82.7938 54.525 84.4938 56.425 86.7938 56.425C89.0938 56.425 90.8188 54.525 90.7938 52.375C90.7938 49.025 90.7938 42.5 90.7938 42.5H94.9938ZM101.503 59.025V66.25L97.553 66.275V47.525L101.503 47.5V48.4C101.503 49.15 101.028 50 100.778 50.725L101.428 50.925C101.678 50.225 101.728 49.175 102.253 48.625C103.153 47.675 104.428 47.1 106.103 47.1C109.828 47.1 112.528 50.025 112.378 53.725C112.253 57.225 109.628 60.375 106.128 60.375C104.453 60.375 103.203 59.675 102.278 58.75C101.753 58.225 101.653 57.175 101.403 56.475L100.753 56.7C101.003 57.425 101.503 58.275 101.503 59.025ZM105.403 50.75C103.553 50.75 102.428 51.975 102.428 53.65C102.428 55.325 103.553 56.725 105.403 56.725C107.253 56.725 108.428 55.325 108.428 53.65C108.428 51.975 107.253 50.75 105.403 50.75Z" fill="#1C0221"/>
<defs>
<clipPath id="clip0_243_638">
<rect width="57" height="40" fill="white" transform="translate(28)"/>
</clipPath>
</defs>
</svg>
