<svg width="24" height="25" viewBox="0 0 24 25" fill="none" xmlns="http://www.w3.org/2000/svg">
<g id="ant-design:logout-outlined">
<path id="Vector" d="M20.3437 17.6166H18.6961C18.5836 17.6166 18.4781 17.6658 18.4078 17.7525C18.2437 17.9517 18.0679 18.1439 17.8828 18.3267C17.1255 19.0847 16.2285 19.6889 15.2414 20.1056C14.2187 20.5376 13.1195 20.7592 12.0093 20.7572C10.8867 20.7572 9.79919 20.5369 8.77732 20.1056C7.7902 19.6889 6.89319 19.0847 6.13591 18.3267C5.37727 17.5712 4.77236 16.6758 4.35466 15.69C3.92107 14.6681 3.7031 13.583 3.7031 12.4603C3.7031 11.3376 3.92341 10.2525 4.35466 9.23062C4.77185 8.2439 5.37185 7.35561 6.13591 6.5939C6.89997 5.83218 7.78825 5.23218 8.77732 4.81499C9.79919 4.38374 10.8867 4.16343 12.0093 4.16343C13.132 4.16343 14.2195 4.3814 15.2414 4.81499C16.2304 5.23218 17.1187 5.83218 17.8828 6.5939C18.0679 6.77905 18.2414 6.97124 18.4078 7.16811C18.4781 7.25483 18.5859 7.30405 18.6961 7.30405H20.3437C20.4914 7.30405 20.5828 7.13999 20.5008 7.01577C18.7031 4.22202 15.5578 2.3728 11.9836 2.38218C6.36794 2.39624 1.8656 6.95483 1.92185 12.5634C1.9781 18.083 6.47341 22.5384 12.0093 22.5384C15.5742 22.5384 18.7054 20.6916 20.5008 17.9048C20.5804 17.7806 20.4914 17.6166 20.3437 17.6166ZM22.4273 12.3126L19.1015 9.68765C18.9773 9.58921 18.7968 9.67827 18.7968 9.8353V11.6166H11.4375C11.3343 11.6166 11.25 11.7009 11.25 11.8041V13.1166C11.25 13.2197 11.3343 13.3041 11.4375 13.3041H18.7968V15.0853C18.7968 15.2423 18.9797 15.3314 19.1015 15.233L22.4273 12.608C22.4497 12.5904 22.4679 12.568 22.4803 12.5424C22.4928 12.5168 22.4993 12.4888 22.4993 12.4603C22.4993 12.4318 22.4928 12.4038 22.4803 12.3782C22.4679 12.3526 22.4497 12.3302 22.4273 12.3126Z" fill="black" fill-opacity="0.5"/>
</g>
</svg>
