<svg width="94" height="21" viewBox="0 0 94 21" fill="none" xmlns="http://www.w3.org/2000/svg">
<path d="M0.155905 8.39311C0.155905 4.10562 3.52762 0.79634 7.54455 0.79634C11.5615 0.79634 14.9332 4.45944 14.9332 8.39311C14.9332 12.3268 11.5615 16.0107 7.54455 16.0107C3.52762 16.0107 0.155905 12.6806 0.155905 8.39311ZM3.67331 8.39311C3.67331 10.2663 4.73478 12.5974 7.54455 12.5974C10.3751 12.5974 11.4366 10.2663 11.4366 8.39311C11.4366 6.51994 10.3751 4.18887 7.54455 4.18887C4.73478 4.18887 3.67331 6.51994 3.67331 8.39311ZM20.9413 5.8331C22.1693 5.10465 23.5013 4.95895 25.3329 4.95895V7.99766C22.6064 7.99766 19.6509 9.0175 19.6509 11.8897V15.6777H16.3833V5.27115H19.6509C19.6509 5.25034 19.6509 5.25034 19.6509 5.22952V5.27115C19.6301 6.27018 19.1098 7.43571 18.6727 8.33067L19.193 8.58043C19.6301 7.66465 20.088 6.37424 20.9413 5.8331ZM35.2646 6.08286V0.588209L38.5531 0.567397V15.6569L35.2646 15.6777V14.9284C35.2646 14.304 35.6809 13.5964 35.8682 12.9928L35.3271 12.8263C35.1189 13.4091 35.0773 14.2832 34.6611 14.7411C33.891 15.532 32.8295 16.0107 31.435 16.0107C28.3339 16.0107 26.1069 13.5756 26.2109 10.4952C26.3358 7.56059 28.5004 4.95895 31.435 4.95895C32.8087 4.95895 33.8702 5.54172 34.6194 6.3118C35.0565 6.74888 35.1398 7.60222 35.3479 8.20579L35.889 8.01848C35.6809 7.4149 35.2646 6.70725 35.2646 6.08286ZM32.0178 12.972C33.558 12.972 34.4946 11.9521 34.4946 10.5577C34.4946 9.1632 33.558 7.99766 32.0178 7.99766C30.4776 7.99766 29.4994 9.1632 29.4994 10.5577C29.4994 11.9521 30.4776 12.972 32.0178 12.972ZM47.0476 16.0107C42.4687 16.0107 39.9712 13.5131 39.9712 10.412C39.9712 7.31083 42.6769 4.95895 46.5065 4.95895C50.4401 4.95895 52.8753 7.53978 52.8544 10.4536C52.8544 10.6826 52.8544 11.1821 52.8544 11.3694L44.0713 11.3486C44.0713 12.2643 44.9455 13.305 46.7354 13.305C47.8801 13.305 48.5878 12.9928 48.7959 12.7014H52.6255C52.3133 13.7837 50.6274 16.0107 47.0476 16.0107ZM44.0713 9.43377H48.9416C48.9416 8.22661 48.0466 7.39408 46.5897 7.39408C45.112 7.39408 44.0713 8.33067 44.0713 9.43377ZM58.787 5.8331C60.015 5.10465 61.347 4.95895 63.1785 4.95895V7.99766C60.452 7.99766 57.4966 9.0175 57.4966 11.8897V15.6777H54.2289V5.27115H57.4966C57.4966 5.25034 57.4966 5.25034 57.4966 5.22952V5.27115C57.4758 6.27018 56.9554 7.43571 56.5184 8.33067L57.0387 8.58043C57.4758 7.66465 57.9336 6.37424 58.787 5.8331ZM78.5009 1.10854L78.5217 10.6201C78.5217 14.0959 75.5246 15.9899 71.6534 15.9899C67.803 15.9899 64.8059 14.0959 64.8059 10.6201C64.8059 6.29099 64.8059 1.10854 64.8059 1.10854H68.3233V9.3297C68.3441 11.1196 69.7594 12.7014 71.6742 12.7014C73.589 12.7014 75.0251 11.1196 75.0043 9.3297C75.0043 6.54075 75.0043 1.10854 75.0043 1.10854H78.5009ZM83.9199 14.866V20.881L80.6314 20.9018V5.29196L83.9199 5.27115V6.02042C83.9199 6.64481 83.5245 7.35246 83.3163 7.95604L83.8575 8.12254C84.0656 7.53978 84.1072 6.66563 84.5443 6.20774C85.2936 5.41684 86.355 4.93814 87.7495 4.93814C90.8507 4.93814 93.0985 7.37327 92.9736 10.4536C92.8695 13.3674 90.6842 15.9899 87.7703 15.9899C86.3759 15.9899 85.3352 15.4071 84.5651 14.637C84.128 14.2 84.0448 13.3258 83.8367 12.743L83.2955 12.9304C83.5036 13.5339 83.9199 14.2416 83.9199 14.866ZM87.1667 7.97685C85.6266 7.97685 84.69 8.99669 84.69 10.3912C84.69 11.7856 85.6266 12.9512 87.1667 12.9512C88.7069 12.9512 89.6851 11.7856 89.6851 10.3912C89.6851 8.99669 88.7069 7.97685 87.1667 7.97685Z" fill="#1C0221"/>
</svg>
