<svg width="18" height="18" viewBox="0 0 18 18" fill="none" xmlns="http://www.w3.org/2000/svg">
<path id="Vector" d="M17.1499 5.3238L16.5213 8.45951C16.1856 10.1238 14.7142 11.3309 13.0213 11.3309H4.85706C5.15706 12.1738 5.94992 12.7595 6.87849 12.7595H13.6213C14.0142 12.7595 14.3356 13.0809 14.3356 13.4738C14.3356 13.8666 14.0142 14.1881 13.6213 14.1881H6.87849C5.07135 14.1881 3.54278 12.8309 3.32849 11.0309L2.34278 2.6738C2.29992 2.31666 1.99278 2.04523 1.63564 2.04523H0.764212C0.371355 2.04523 0.0499268 1.7238 0.0499268 1.33095C0.0499268 0.938089 0.371355 0.616661 0.764212 0.616661H1.63564C2.72135 0.616661 3.63564 1.43095 3.76421 2.50952L3.79278 2.75952H6.47849C6.87135 2.75952 7.19277 3.08094 7.19277 3.4738C7.19277 3.86666 6.87135 4.18809 6.47849 4.18809H3.96421L4.63564 9.90236H13.0213C14.0356 9.90236 14.9213 9.18094 15.1213 8.18094L15.7499 5.04523C15.7928 4.83808 15.7356 4.61666 15.5999 4.45237C15.4642 4.28809 15.2642 4.18809 15.0499 4.18809H12.1928C11.7999 4.18809 11.4785 3.86666 11.4785 3.4738C11.4785 3.08094 11.7999 2.75952 12.1928 2.75952H15.0499C15.6928 2.75952 16.2999 3.04523 16.707 3.54523C17.1142 4.04523 17.2785 4.69523 17.1499 5.3238ZM5.04992 14.9024C4.26421 14.9024 3.62135 15.5452 3.62135 16.3309C3.62135 17.1166 4.26421 17.7595 5.04992 17.7595C5.83563 17.7595 6.47849 17.1166 6.47849 16.3309C6.47849 15.5452 5.83563 14.9024 5.04992 14.9024ZM12.1928 14.9024C11.4071 14.9024 10.7642 15.5452 10.7642 16.3309C10.7642 17.1166 11.4071 17.7595 12.1928 17.7595C12.9785 17.7595 13.6213 17.1166 13.6213 16.3309C13.6213 15.5452 12.9785 14.9024 12.1928 14.9024ZM6.67135 5.79523C6.39992 6.08094 6.42135 6.53808 6.70706 6.80237L7.82135 7.84522C8.24277 8.26665 8.79277 8.47379 9.34277 8.47379C9.89277 8.47379 10.4285 8.26665 10.8356 7.85951L11.9713 6.80237C12.2571 6.53094 12.2713 6.08094 12.0071 5.79523C11.7356 5.50951 11.2856 5.48808 10.9999 5.75951L10.0571 6.63808V1.33095C10.0571 0.938089 9.73563 0.616661 9.34277 0.616661C8.94992 0.616661 8.62849 0.938089 8.62849 1.33095V6.63808L7.68563 5.75951C7.39992 5.48808 6.94277 5.50951 6.67849 5.79523H6.67135Z" fill="black" fill-opacity="0.75"/>
</svg>
