<svg width="18" height="18" viewBox="0 0 18 18" fill="none" xmlns="http://www.w3.org/2000/svg">
<path id="Vector" d="M7.90707 7.60744V8.32173C7.90707 8.71601 7.58707 9.03601 7.19278 9.03601H3.62136C3.22707 9.03601 2.90707 8.71601 2.90707 8.32173V7.60744C2.90707 7.21316 3.22707 6.89316 3.62136 6.89316H7.19278C7.58707 6.89316 7.90707 7.21316 7.90707 7.60744ZM17.1928 5.10744V12.6074C17.1928 12.8624 17.0571 13.0989 16.8356 13.226C16.6149 13.3532 16.3428 13.3532 16.1221 13.226L14.5721 12.3332L13.3099 13.1967C13.1871 13.281 13.0464 13.3217 12.9078 13.3217C12.6799 13.3217 12.4556 13.2132 12.3178 13.0103C12.0949 12.6853 12.1785 12.241 12.5042 12.0174L14.1364 10.9003C14.3614 10.7453 14.6585 10.7332 14.8956 10.871L15.7642 11.371V5.10744C15.7642 3.3353 14.3221 1.89316 12.5499 1.89316C10.9435 1.89316 9.6235 3.05316 9.38493 4.61816C10.2164 5.19958 10.7642 6.16101 10.7642 7.2503V14.3932C10.7642 16.1653 9.32207 17.6074 7.54993 17.6074H3.26421C1.49207 17.6074 0.0499268 16.1653 0.0499268 14.3932V7.2503C0.0499268 6.13816 0.617784 5.15744 1.4785 4.5803V4.03601C1.4785 2.06673 3.08064 0.464584 5.04993 0.464584H12.5499C15.1099 0.464584 17.1928 2.54744 17.1928 5.10744ZM9.33564 7.2503C9.33564 6.2653 8.53493 5.46458 7.54993 5.46458H3.26421C2.27921 5.46458 1.4785 6.2653 1.4785 7.2503V14.3932C1.4785 15.3782 2.27921 16.1789 3.26421 16.1789H7.54993C8.53493 16.1789 9.33564 15.3782 9.33564 14.3932V7.2503ZM8.02421 4.08387C8.21207 3.23887 8.62207 2.48887 9.19207 1.89316H5.04993C3.8685 1.89316 2.90707 2.85458 2.90707 4.03601V4.07244C3.02564 4.05887 3.14207 4.03601 3.26421 4.03601H7.54993C7.71207 4.03601 7.8685 4.0603 8.02421 4.08387ZM7.19278 10.4646H6.4785C6.0835 10.4646 5.76421 10.7839 5.76421 11.1789C5.76421 11.5739 6.0835 11.8932 6.4785 11.8932H7.19278C7.58778 11.8932 7.90707 11.5739 7.90707 11.1789C7.90707 10.7839 7.58778 10.4646 7.19278 10.4646ZM7.19278 13.3217H6.4785C6.0835 13.3217 5.76421 13.641 5.76421 14.036C5.76421 14.431 6.0835 14.7503 6.4785 14.7503H7.19278C7.58778 14.7503 7.90707 14.431 7.90707 14.036C7.90707 13.641 7.58778 13.3217 7.19278 13.3217ZM4.33564 10.4646H3.62136C3.22636 10.4646 2.90707 10.7839 2.90707 11.1789C2.90707 11.5739 3.22636 11.8932 3.62136 11.8932H4.33564C4.73064 11.8932 5.04993 11.5739 5.04993 11.1789C5.04993 10.7839 4.73064 10.4646 4.33564 10.4646ZM4.33564 13.3217H3.62136C3.22636 13.3217 2.90707 13.641 2.90707 14.036C2.90707 14.431 3.22636 14.7503 3.62136 14.7503H4.33564C4.73064 14.7503 5.04993 14.431 5.04993 14.036C5.04993 13.641 4.73064 13.3217 4.33564 13.3217Z" fill="black" fill-opacity="0.75"/>
</svg>
