<svg width="17" height="17" viewBox="0 0 17 17" fill="none" xmlns="http://www.w3.org/2000/svg">
<path id="Vector" d="M15.4727 14.9417L11.8336 11.2141C12.8253 9.97176 13.3129 8.38649 13.1955 6.78623C13.0781 5.18596 12.3648 3.69312 11.203 2.6165C10.0412 1.53988 8.51988 0.961844 6.9537 1.00196C5.38752 1.04207 3.89631 1.69726 2.7885 2.83201C1.6807 3.96676 1.04107 5.49424 1.00191 7.09852C0.96275 8.7028 1.52706 10.2611 2.57812 11.4512C3.62917 12.6412 5.08656 13.3719 6.64882 13.4921C8.21109 13.6124 9.75871 13.1129 10.9716 12.0971L14.6106 15.8247C14.7256 15.9385 14.8796 16.0014 15.0394 16C15.1993 15.9986 15.3522 15.9329 15.4652 15.8171C15.5783 15.7013 15.6424 15.5447 15.6438 15.3809C15.6452 15.2172 15.5837 15.0595 15.4727 14.9417ZM7.11609 12.2608C6.15146 12.2608 5.20849 11.9677 4.40643 11.4188C3.60437 10.8698 2.97924 10.0896 2.61009 9.1767C2.24094 8.26382 2.14435 7.25932 2.33254 6.29021C2.52073 5.3211 2.98525 4.43091 3.66734 3.73223C4.34944 3.03354 5.21849 2.55772 6.16458 2.36496C7.11068 2.17219 8.09133 2.27112 8.98253 2.64925C9.87374 3.02738 10.6355 3.66772 11.1714 4.48929C11.7073 5.31086 11.9933 6.27676 11.9933 7.26486C11.9919 8.58939 11.4776 9.85926 10.5632 10.7958C9.64888 11.7324 8.40917 12.2593 7.11609 12.2608Z" fill="black" stroke="black" stroke-width="0.75"/>
</svg>
