<svg width="18" height="20" viewBox="0 0 18 20" fill="none" xmlns="http://www.w3.org/2000/svg">
<g id="Settings">
<path id="Vector" d="M8.62138 7.16454C7.99331 7.16454 7.37935 7.35079 6.85713 7.69973C6.3349 8.04866 5.92788 8.54462 5.68753 9.12488C5.44718 9.70514 5.38429 10.3436 5.50682 10.9596C5.62935 11.5757 5.9318 12.1415 6.37591 12.5856C6.82002 13.0297 7.38586 13.3322 8.00186 13.4547C8.61786 13.5772 9.25636 13.5143 9.83663 13.274C10.4169 13.0336 10.9128 12.6266 11.2618 12.1044C11.6107 11.5822 11.797 10.9682 11.797 10.3401C11.797 9.49791 11.4624 8.69019 10.8669 8.09465C10.2713 7.49911 9.4636 7.16454 8.62138 7.16454ZM8.62138 11.9279C8.30735 11.9279 8.00037 11.8348 7.73925 11.6603C7.47814 11.4859 7.27463 11.2379 7.15446 10.9477C7.03428 10.6576 7.00284 10.3384 7.0641 10.0304C7.12537 9.72236 7.27659 9.43944 7.49865 9.21739C7.7207 8.99533 8.00362 8.84411 8.31162 8.78284C8.61962 8.72158 8.93887 8.75302 9.229 8.8732C9.51914 8.99337 9.76711 9.19688 9.94158 9.458C10.1161 9.71911 10.2092 10.0261 10.2092 10.3401C10.2092 10.7612 10.0419 11.1651 9.74412 11.4629C9.44635 11.7606 9.04249 11.9279 8.62138 11.9279Z" fill="black" fill-opacity="0.75"/>
<path id="Vector_2" d="M15.9998 11.8485L15.6473 11.6453C15.806 10.7819 15.806 9.89678 15.6473 9.03337L15.9998 8.83013C16.2709 8.67375 16.5085 8.46551 16.6991 8.21729C16.8897 7.96908 17.0295 7.68576 17.1106 7.38351C17.1917 7.08126 17.2124 6.76599 17.1717 6.45572C17.1309 6.14544 17.0295 5.84623 16.8731 5.57516C16.7167 5.3041 16.5085 5.06649 16.2603 4.8759C16.0121 4.68532 15.7287 4.54548 15.4265 4.46439C15.1242 4.3833 14.809 4.36254 14.4987 4.40328C14.1884 4.44403 13.8892 4.54549 13.6181 4.70188L13.2649 4.90591C12.5976 4.33583 11.8308 3.89389 11.003 3.60233V3.19506C11.003 2.5634 10.7521 1.95761 10.3055 1.51096C9.85881 1.0643 9.25302 0.813377 8.62136 0.813377C7.98969 0.813377 7.3839 1.0643 6.93725 1.51096C6.4906 1.95761 6.23967 2.5634 6.23967 3.19506V3.60233C5.41194 3.89493 4.64541 4.33795 3.97866 4.90908L3.62378 4.70346C3.07634 4.38763 2.42586 4.30221 1.81544 4.46598C1.20501 4.62975 0.684645 5.02931 0.368814 5.57675C0.0529825 6.12419 -0.0324431 6.77467 0.13133 7.3851C0.295102 7.99552 0.694658 8.51589 1.2421 8.83172L1.59459 9.03496C1.4359 9.89836 1.4359 10.7835 1.59459 11.6469L1.2421 11.8501C0.694658 12.1659 0.295102 12.6863 0.13133 13.2967C-0.0324431 13.9072 0.0529825 14.5576 0.368814 15.1051C0.684645 15.6525 1.20501 16.0521 1.81544 16.2158C2.42586 16.3796 3.07634 16.2942 3.62378 15.9784L3.97707 15.7743C4.64455 16.3445 5.41162 16.7864 6.23967 17.0779V17.4852C6.23967 18.1168 6.4906 18.7226 6.93725 19.1693C7.3839 19.6159 7.98969 19.8669 8.62136 19.8669C9.25302 19.8669 9.85881 19.6159 10.3055 19.1693C10.7521 18.7226 11.003 18.1168 11.003 17.4852V17.0779C11.8308 16.7853 12.5973 16.3423 13.2641 15.7712L13.6189 15.976C14.1664 16.2918 14.8168 16.3772 15.4273 16.2135C16.0377 16.0497 16.5581 15.6501 16.8739 15.1027C17.1897 14.5553 17.2752 13.9048 17.1114 13.2944C16.9476 12.6839 16.5481 12.1636 16.0006 11.8477L15.9998 11.8485ZM13.977 8.85077C14.2458 9.82493 14.2458 10.8537 13.977 11.8279C13.93 11.9974 13.9407 12.1778 14.0074 12.3406C14.0741 12.5034 14.193 12.6394 14.3453 12.7274L15.2059 13.2243C15.3884 13.3296 15.5215 13.5031 15.5761 13.7065C15.6307 13.91 15.6022 14.1268 15.4969 14.3092C15.3916 14.4916 15.2182 14.6248 15.0147 14.6794C14.8113 14.7339 14.5945 14.7054 14.412 14.6002L13.5499 14.1016C13.3973 14.0133 13.2198 13.9782 13.0451 14.0019C12.8705 14.0256 12.7087 14.1068 12.5853 14.2326C11.8786 14.954 10.9884 15.4687 10.0107 15.7211C9.84001 15.765 9.6888 15.8644 9.58085 16.0037C9.47291 16.143 9.41437 16.3142 9.41446 16.4904V17.4852C9.41446 17.6957 9.33081 17.8977 9.18193 18.0465C9.03305 18.1954 8.83112 18.2791 8.62056 18.2791C8.41001 18.2791 8.20808 18.1954 8.05919 18.0465C7.91031 17.8977 7.82667 17.6957 7.82667 17.4852V16.4912C7.82675 16.315 7.76821 16.1438 7.66027 16.0045C7.55233 15.8652 7.40111 15.7658 7.23045 15.7219C6.25265 15.4684 5.36268 14.9526 4.65664 14.2302C4.53321 14.1044 4.37143 14.0232 4.19678 13.9995C4.02214 13.9758 3.84457 14.0109 3.69206 14.0992L2.83148 14.597C2.74115 14.6499 2.64125 14.6845 2.53752 14.6987C2.43378 14.7129 2.32827 14.7064 2.22705 14.6796C2.12583 14.6529 2.0309 14.6064 1.94773 14.5428C1.86456 14.4792 1.79479 14.3997 1.74244 14.3091C1.69009 14.2184 1.65619 14.1183 1.6427 14.0144C1.6292 13.9106 1.63638 13.8051 1.66381 13.7041C1.69124 13.6031 1.73839 13.5084 1.80254 13.4257C1.86668 13.3429 1.94657 13.2737 2.03758 13.222L2.89816 12.725C3.05055 12.6371 3.16942 12.501 3.23609 12.3382C3.30277 12.1754 3.31348 11.9951 3.26653 11.8255C2.99768 10.8513 2.99768 9.82255 3.26653 8.84839C3.31263 8.6792 3.30141 8.4995 3.23463 8.33736C3.16785 8.17521 3.04926 8.03973 2.89737 7.95208L2.03679 7.45511C1.85434 7.34983 1.72119 7.17639 1.66663 6.97294C1.61206 6.76949 1.64055 6.55269 1.74583 6.37025C1.8511 6.1878 2.02454 6.05465 2.22799 6.00008C2.43144 5.94552 2.64824 5.97401 2.83068 6.07928L3.69285 6.57785C3.84495 6.66638 4.02215 6.70187 4.1966 6.67873C4.37106 6.65559 4.53288 6.57515 4.65664 6.45003C5.36328 5.72866 6.2535 5.21396 7.23124 4.96148C7.40243 4.91747 7.55404 4.81759 7.66204 4.67766C7.77004 4.53774 7.82825 4.36577 7.82746 4.18902V3.19506C7.82746 2.98451 7.9111 2.78258 8.05999 2.63369C8.20887 2.48481 8.4108 2.40117 8.62136 2.40117C8.83191 2.40117 9.03384 2.48481 9.18272 2.63369C9.33161 2.78258 9.41525 2.98451 9.41525 3.19506V4.18902C9.41516 4.36523 9.4737 4.53646 9.58165 4.67574C9.68959 4.81502 9.84081 4.91443 10.0115 4.9583C10.9896 5.21168 11.8798 5.7275 12.5861 6.45003C12.7095 6.57584 12.8713 6.657 13.0459 6.68071C13.2206 6.70443 13.3981 6.66936 13.5507 6.58103L14.4112 6.08325C14.5016 6.0303 14.6015 5.99574 14.7052 5.98156C14.8089 5.96737 14.9144 5.97385 15.0157 6.00061C15.1169 6.02737 15.2118 6.07389 15.295 6.13749C15.3782 6.20109 15.4479 6.28051 15.5003 6.37118C15.5526 6.46185 15.5865 6.56198 15.6 6.66581C15.6135 6.76963 15.6063 6.8751 15.5789 6.97614C15.5515 7.07718 15.5043 7.1718 15.4402 7.25455C15.376 7.33729 15.2961 7.40653 15.2051 7.45828L14.3445 7.95526C14.193 8.04315 14.0747 8.17872 14.0082 8.34085C13.9417 8.50298 13.9307 8.68255 13.977 8.85157V8.85077Z" fill="black" fill-opacity="0.75"/>
</g>
</svg>
